# Blender v2.82 (sub 7) OBJ File: 'logovo.blend'
# www.blender.org
mtllib box.mtl
o Cube.008_Cube.004
v -25.445625 0.257386 -54.972816
v -25.457489 0.408927 -55.123894
v -25.287449 2.581134 -52.958351
v -25.275587 2.429593 -52.807274
v -25.372469 1.495031 -54.041122
v -25.360605 1.343489 -53.890045
v -25.559570 0.257386 -54.963867
v -25.571432 0.408927 -55.114944
v -25.401392 2.581134 -52.949406
v -25.389530 2.429593 -52.798328
v -25.486412 1.495031 -54.032173
v -25.474550 1.343489 -53.881100
v -22.362173 2.581131 -53.080296
v -22.362173 0.453035 -53.080296
v -23.019079 2.581131 -55.620785
v -23.019079 0.453035 -55.620785
v -25.392982 2.581131 -52.842312
v -25.392982 0.453035 -52.842312
v -25.559570 2.581131 -54.963879
v -25.559570 0.453034 -54.963879
v -25.140646 0.453035 -55.454197
v -25.140646 2.581131 -55.454197
v -24.902664 2.581131 -52.423389
v -24.902664 0.453035 -52.423389
v -22.528761 0.453035 -55.201862
v -22.528761 2.581131 -55.201862
v -25.104948 3.037151 -54.999577
v -25.104948 -0.002986 -54.999577
v -22.983383 3.037151 -55.166164
v -22.781097 2.581131 -52.589977
v -22.781097 0.453035 -52.589977
v -22.983383 -0.002986 -55.166164
v -22.816795 3.037151 -53.044598
v -22.816795 -0.002986 -53.044598
v -24.938362 -0.002986 -52.878010
v -24.938360 3.037152 -52.878010
v -22.326477 -0.002986 -52.625675
v -22.564459 -0.002986 -55.656483
v -25.595266 -0.002986 -55.418499
v -25.357285 -0.002986 -52.387691
v -22.564459 3.037151 -55.656483
v -22.326477 3.037152 -52.625675
v -25.595266 3.037151 -55.418499
v -25.357285 3.037152 -52.387691
v -25.445625 0.453035 -54.972828
v -25.445625 2.581131 -54.972824
v -25.279039 2.581131 -52.851261
v -25.279039 0.453035 -52.851261
v -23.010134 0.453034 -55.506840
v -23.010132 2.581131 -55.506840
v -25.131699 2.581131 -55.340256
v -25.131699 0.453035 -55.340256
v -22.642704 2.581131 -55.192913
v -22.476118 2.581131 -53.071346
v -22.476118 0.453035 -53.071350
v -22.642704 0.453035 -55.192913
v -22.790045 2.581131 -52.703918
v -22.790045 0.453035 -52.703918
v -24.911612 0.453035 -52.537334
v -24.911612 2.581131 -52.537334
v -22.816795 0.111309 -53.044598
v -22.983383 0.111308 -55.166164
v -25.104948 0.111308 -54.999577
v -24.938362 0.111309 -52.878010
v -22.983383 2.922857 -55.166164
v -22.816795 2.922857 -53.044598
v -25.104948 2.922857 -54.999577
v -24.938362 2.922857 -52.878010
v -24.150993 2.922857 -55.074482
v -23.937338 2.922857 -55.091259
v -23.770750 2.922857 -52.969692
v -23.984406 2.922857 -52.952915
v -23.044590 2.922858 -55.259483
v -22.881651 2.922858 -55.120270
v -24.877153 2.922858 -52.784687
v -25.040092 2.922858 -52.923901
v -23.879402 2.922858 -53.952477
v -24.042341 2.922858 -54.091690
v -23.044590 3.037152 -55.259483
v -22.881651 3.037152 -55.120270
v -24.877153 3.037153 -52.784687
v -25.040092 3.037153 -52.923901
v -23.879402 3.037153 -53.952477
v -24.042341 3.037153 -54.091690
v -22.723475 2.922858 -53.105804
v -22.862688 2.922858 -52.942863
v -25.198269 2.922858 -54.938366
v -25.059055 2.922858 -55.101303
v -24.030478 2.922858 -53.940613
v -23.891264 2.922858 -54.103554
v -22.723475 3.037153 -53.105804
v -22.862688 3.037153 -52.942863
v -25.198269 3.037153 -54.938366
v -25.059055 3.037153 -55.101303
v -24.030478 3.037153 -53.940613
v -23.891264 3.037153 -54.103554
v -23.010134 0.453034 -55.506844
v -22.859056 0.604575 -55.518707
v -25.024597 2.776782 -55.348667
v -25.175674 2.625241 -55.336803
v -23.941828 1.690679 -55.433689
v -24.092903 1.539137 -55.421825
v -23.019079 0.453034 -55.620789
v -22.868004 0.604575 -55.632652
v -25.033545 2.776782 -55.462612
v -25.184622 2.625241 -55.450748
v -23.950775 1.690679 -55.547630
v -24.101851 1.539137 -55.535770
v -22.859056 2.625241 -55.518707
v -23.010134 2.776782 -55.506844
v -25.175674 0.604575 -55.336807
v -25.024599 0.453034 -55.348667
v -24.092903 1.690679 -55.421825
v -23.941828 1.539137 -55.433689
v -22.868004 2.625241 -55.632652
v -23.019079 2.776782 -55.620789
v -25.184622 0.604575 -55.450748
v -25.033545 0.453034 -55.462612
v -24.101851 1.690679 -55.535770
v -23.950775 1.539137 -55.547630
v -22.484528 0.453032 -53.178436
v -22.472664 0.604573 -53.027363
v -22.642704 2.776780 -55.192902
v -22.654568 2.625239 -55.343979
v -22.557684 1.690677 -54.110130
v -22.569548 1.539135 -54.261208
v -22.370583 0.453032 -53.187386
v -22.358721 0.604573 -53.036308
v -22.528761 2.776780 -55.201851
v -22.540623 2.625239 -55.352924
v -22.443741 1.690677 -54.119080
v -22.455603 1.539135 -54.270157
v -22.472664 2.625239 -53.027363
v -22.484528 2.776780 -53.178436
v -22.654566 0.604573 -55.343979
v -22.642704 0.453032 -55.192902
v -22.569548 1.690677 -54.261208
v -22.557684 1.539135 -54.110130
v -22.358721 2.625239 -53.036308
v -22.370583 2.776780 -53.187386
v -22.540623 0.604573 -55.352924
v -22.528761 0.453032 -55.201851
v -22.455603 1.690677 -54.270157
v -22.443741 1.539135 -54.119080
v -24.760534 0.408925 -52.549194
v -24.911612 0.560467 -52.537331
v -22.746069 2.732673 -52.707371
v -22.594994 2.581132 -52.719234
v -23.828840 1.646570 -52.622353
v -23.677763 1.495028 -52.634212
v -24.751587 0.408925 -52.435249
v -24.902664 0.560467 -52.423389
v -22.737123 2.732673 -52.593430
v -22.586046 2.581132 -52.605289
v -23.819893 1.646570 -52.508408
v -23.668818 1.495028 -52.520271
v -24.911612 2.581132 -52.537331
v -24.760534 2.732673 -52.549194
v -22.594994 0.560466 -52.719234
v -22.746069 0.408925 -52.707371
v -23.677763 1.646570 -52.634212
v -23.828840 1.495028 -52.622353
v -24.902664 2.581132 -52.423389
v -24.751587 2.732673 -52.435249
v -22.586046 0.560467 -52.605289
v -22.737123 0.408925 -52.593430
v -23.668818 1.646570 -52.520271
v -23.819893 1.495028 -52.508408
v -25.457489 2.429590 -55.123894
v -25.445625 2.581131 -54.972820
v -25.275587 0.408924 -52.807278
v -25.287449 0.257383 -52.958355
v -25.360607 1.495028 -53.890049
v -25.372469 1.343486 -54.041126
v -25.571432 2.429590 -55.114948
v -25.559568 2.581131 -54.963871
v -25.389530 0.408924 -52.798332
v -25.401394 0.257383 -52.949406
v -25.474550 1.495028 -53.881100
v -25.486412 1.343486 -54.032177
vt 0.258812 0.625000
vt 0.241188 0.625000
vt 0.241188 0.712500
vt 0.258812 0.712500
vt 0.258812 0.537500
vt 0.241188 0.537500
vt 0.258812 0.625000
vt 0.258812 0.712500
vt 0.241188 0.712500
vt 0.241188 0.625000
vt 0.258812 0.537500
vt 0.241188 0.537500
vt 0.412500 0.537500
vt 0.587500 0.537500
vt 0.587500 0.712500
vt 0.412500 0.712500
vt 0.258812 0.537500
vt 0.258812 0.712500
vt 0.241188 0.712500
vt 0.241188 0.537500
vt 0.587500 0.212500
vt 0.412500 0.212500
vt 0.412500 0.212500
vt 0.587500 0.212500
vt 0.587500 0.787500
vt 0.587500 0.962500
vt 0.587500 0.962500
vt 0.587500 0.787500
vt 0.587500 0.462500
vt 0.412500 0.462500
vt 0.412500 0.462500
vt 0.587500 0.462500
vt 0.587500 0.537500
vt 0.412500 0.537500
vt 0.375000 0.500000
vt 0.625000 0.500000
vt 0.662500 0.712500
vt 0.662500 0.537500
vt 0.662500 0.537500
vt 0.662500 0.712500
vt 0.412500 0.712500
vt 0.375000 0.750000
vt 0.587500 0.712500
vt 0.625000 0.750000
vt 0.587500 0.287500
vt 0.412500 0.287500
vt 0.375000 0.250000
vt 0.625000 0.250000
vt 0.412500 0.962500
vt 0.412500 0.787500
vt 0.412500 0.787500
vt 0.412500 0.962500
vt 0.587500 0.037500
vt 0.412500 0.037500
vt 0.375000 0.000000
vt 0.625000 0.000000
vt 0.625000 1.000000
vt 0.375000 1.000000
vt 0.837500 0.712500
vt 0.837500 0.537500
vt 0.875000 0.500000
vt 0.875000 0.750000
vt 0.162500 0.537500
vt 0.162500 0.712500
vt 0.125000 0.750000
vt 0.125000 0.500000
vt 0.337500 0.537500
vt 0.337500 0.712500
vt 0.412500 0.037500
vt 0.587500 0.037500
vt 0.412500 0.287500
vt 0.587500 0.287500
vt 0.837500 0.537500
vt 0.837500 0.712500
vt 0.337500 0.712500
vt 0.337500 0.537500
vt 0.162500 0.537500
vt 0.162500 0.712500
vt 0.258812 0.625000
vt 0.241188 0.625000
vt 0.241188 0.712500
vt 0.258812 0.712500
vt 0.258812 0.537500
vt 0.241188 0.537500
vt 0.258812 0.625000
vt 0.258812 0.712500
vt 0.241188 0.712500
vt 0.241188 0.625000
vt 0.258812 0.537500
vt 0.241188 0.537500
vt 0.258812 0.625000
vt 0.241188 0.625000
vt 0.241188 0.712500
vt 0.258812 0.712500
vt 0.258812 0.537500
vt 0.241188 0.537500
vt 0.258812 0.625000
vt 0.258812 0.712500
vt 0.241188 0.712500
vt 0.241188 0.625000
vt 0.258812 0.537500
vt 0.241188 0.537500
vt 0.258812 0.625000
vt 0.241188 0.625000
vt 0.241188 0.712500
vt 0.258812 0.712500
vt 0.258812 0.537500
vt 0.241188 0.537500
vt 0.258812 0.625000
vt 0.258812 0.712500
vt 0.241188 0.712500
vt 0.241188 0.625000
vt 0.258812 0.537500
vt 0.241188 0.537500
vt 0.258812 0.625000
vt 0.241188 0.625000
vt 0.241188 0.712500
vt 0.258812 0.712500
vt 0.258812 0.537500
vt 0.241188 0.537500
vt 0.258812 0.625000
vt 0.258812 0.712500
vt 0.241188 0.712500
vt 0.241188 0.625000
vt 0.258812 0.537500
vt 0.241188 0.537500
vt 0.258812 0.625000
vt 0.241188 0.625000
vt 0.241188 0.712500
vt 0.258812 0.712500
vt 0.258812 0.537500
vt 0.241188 0.537500
vt 0.258812 0.625000
vt 0.258812 0.712500
vt 0.241188 0.712500
vt 0.241188 0.625000
vt 0.258812 0.537500
vt 0.241188 0.537500
vt 0.258812 0.625000
vt 0.241188 0.625000
vt 0.241188 0.712500
vt 0.258812 0.712500
vt 0.258812 0.537500
vt 0.241188 0.537500
vt 0.258812 0.625000
vt 0.258812 0.712500
vt 0.241188 0.712500
vt 0.241188 0.625000
vt 0.258812 0.537500
vt 0.241188 0.537500
vt 0.258812 0.625000
vt 0.241188 0.625000
vt 0.241188 0.712500
vt 0.258812 0.712500
vt 0.258812 0.537500
vt 0.241188 0.537500
vt 0.258812 0.625000
vt 0.258812 0.712500
vt 0.241188 0.712500
vt 0.241188 0.625000
vt 0.258812 0.537500
vt 0.241188 0.537500
vt 0.258812 0.625000
vt 0.241188 0.625000
vt 0.241188 0.712500
vt 0.258812 0.712500
vt 0.258812 0.537500
vt 0.241188 0.537500
vt 0.258812 0.625000
vt 0.258812 0.712500
vt 0.241188 0.712500
vt 0.241188 0.625000
vt 0.258812 0.537500
vt 0.241188 0.537500
vt 0.258812 0.625000
vt 0.241188 0.625000
vt 0.241188 0.712500
vt 0.258812 0.712500
vt 0.258812 0.537500
vt 0.241188 0.537500
vt 0.258812 0.625000
vt 0.258812 0.712500
vt 0.241188 0.712500
vt 0.241188 0.625000
vt 0.258812 0.537500
vt 0.241188 0.537500
vn 0.9969 0.0000 -0.0783
vn -0.9969 0.0000 0.0783
vn 0.0553 -0.7071 0.7049
vn 0.0553 0.7071 0.7049
vn -0.0554 0.7071 -0.7049
vn -0.0553 0.7071 -0.7049
vn -0.0554 -0.7071 -0.7049
vn -0.0000 1.0000 -0.0000
vn 0.0783 0.0000 0.9969
vn -0.0783 0.0000 -0.9969
vn 0.0000 -1.0000 0.0000
vn -0.7603 0.0000 -0.6496
vn -0.6496 0.0000 0.7603
vn 0.7603 0.0000 0.6496
vn 0.6496 0.0000 -0.7603
vn -0.7049 -0.7071 0.0553
vn -0.7049 -0.7071 0.0554
vn -0.7049 0.7071 0.0554
vn 0.7050 0.7071 -0.0554
vn 0.7049 0.7071 -0.0554
vn 0.7050 -0.7071 -0.0553
vn 0.7049 -0.7071 -0.0554
vn 0.7049 -0.7071 -0.0553
vn -0.7050 -0.7071 0.0553
vn -0.7049 0.7071 0.0553
vn 0.7049 0.7071 -0.0553
vn -0.0553 -0.7071 -0.7049
vn 0.0554 0.7071 0.7049
vn 0.0554 -0.7071 0.7049
usemtl None
s off
f 6/1/1 5/2/1 3/3/1 4/4/1
f 1/5/1 2/6/1 5/2/1 6/1/1
f 12/7/2 10/8/2 9/9/2 11/10/2
f 7/11/2 12/7/2 11/10/2 8/12/2
f 1/5/3 6/1/3 12/7/3 7/11/3
f 6/1/3 4/4/3 10/8/3 12/7/3
f 4/4/4 3/3/4 9/9/4 10/8/4
f 5/2/5 2/6/5 8/12/5 11/10/5
f 3/3/6 5/2/6 11/10/6 9/9/6
f 2/6/7 1/5/7 7/11/7 8/12/7
f 46/13/2 45/14/2 48/15/2 47/16/2
f 69/17/8 72/18/8 71/19/8 70/20/8
f 25/21/9 26/22/9 53/23/9 56/24/9
f 24/25/8 31/26/8 58/27/8 59/28/8
f 21/29/1 22/30/1 51/31/1 52/32/1
f 20/33/2 19/34/2 43/35/2 39/36/2
f 35/37/1 28/38/1 63/39/1 64/40/1
f 19/34/2 17/41/2 44/42/2 43/35/2
f 17/41/2 18/43/2 40/44/2 44/42/2
f 16/45/10 15/46/10 41/47/10 38/48/10
f 30/49/11 23/50/11 60/51/11 57/52/11
f 15/46/10 22/30/10 43/35/10 41/47/10
f 22/30/10 21/29/10 39/36/10 43/35/10
f 18/43/2 20/33/2 39/36/2 40/44/2
f 14/53/1 13/54/1 42/55/1 37/56/1
f 13/54/1 26/22/1 41/47/1 42/55/1
f 26/22/1 25/21/1 38/48/1 41/47/1
f 30/49/9 31/26/9 37/57/9 42/58/9
f 24/25/9 23/50/9 44/42/9 40/44/9
f 21/29/10 16/45/10 38/48/10 39/36/10
f 23/50/9 30/49/9 42/58/9 44/42/9
f 25/21/1 14/53/1 37/56/1 38/48/1
f 31/26/9 24/25/9 40/44/9 37/57/9
f 34/59/11 32/60/11 38/61/11 37/62/11
f 32/60/11 28/38/11 39/36/11 38/61/11
f 28/38/11 35/37/11 40/44/11 39/36/11
f 35/37/11 34/59/11 37/62/11 40/44/11
f 29/63/8 33/64/8 42/65/8 41/66/8
f 27/67/8 29/63/8 41/66/8 43/35/8
f 36/68/8 27/67/8 43/35/8 44/42/8
f 33/64/8 36/68/8 44/42/8 42/65/8
f 54/69/1 55/70/1 56/24/1 53/23/1
f 50/71/10 49/72/10 52/32/10 51/31/10
f 60/51/9 59/28/9 58/27/9 57/52/9
f 62/73/11 61/74/11 64/40/11 63/39/11
f 19/34/9 20/33/9 45/14/9 46/13/9
f 15/46/2 16/45/2 49/72/2 50/71/2
f 27/67/1 36/68/1 68/75/1 67/76/1
f 17/41/11 19/34/11 46/13/11 47/16/11
f 34/59/10 35/37/10 64/40/10 61/74/10
f 31/26/2 30/49/2 57/52/2 58/27/2
f 26/22/11 13/54/11 54/69/11 53/23/11
f 13/54/10 14/53/10 55/70/10 54/69/10
f 20/33/8 18/43/8 48/15/8 45/14/8
f 22/30/11 15/46/11 50/71/11 51/31/11
f 23/50/1 24/25/1 59/28/1 60/51/1
f 32/60/2 34/59/2 61/74/2 62/73/2
f 18/43/10 17/41/10 47/16/10 48/15/10
f 33/64/2 29/63/2 65/77/2 66/78/2
f 16/45/8 21/29/8 52/32/8 49/72/8
f 69/17/8 67/76/8 68/75/8 72/18/8
f 36/68/10 33/64/10 66/78/10 71/19/10 72/18/10 68/75/10
f 29/63/9 27/67/9 67/76/9 69/17/9 70/20/9 65/77/9
f 65/77/8 70/20/8 71/19/8 66/78/8
f 28/38/9 32/60/9 62/73/9 63/39/9
f 14/53/8 25/21/8 56/24/8 55/70/8
f 78/79/11 77/80/11 75/81/11 76/82/11
f 73/83/11 74/84/11 77/80/11 78/79/11
f 84/85/8 82/86/8 81/87/8 83/88/8
f 79/89/8 84/85/8 83/88/8 80/90/8
f 73/83/12 78/79/12 84/85/12 79/89/12
f 78/79/12 76/82/12 82/86/12 84/85/12
f 76/82/13 75/81/13 81/87/13 82/86/13
f 77/80/14 74/84/14 80/90/14 83/88/14
f 75/81/14 77/80/14 83/88/14 81/87/14
f 74/84/15 73/83/15 79/89/15 80/90/15
f 90/91/11 89/92/11 87/93/11 88/94/11
f 85/95/11 86/96/11 89/92/11 90/91/11
f 96/97/8 94/98/8 93/99/8 95/100/8
f 91/101/8 96/97/8 95/100/8 92/102/8
f 85/95/15 90/91/15 96/97/15 91/101/15
f 90/91/15 88/94/15 94/98/15 96/97/15
f 88/94/12 87/93/12 93/99/12 94/98/12
f 89/92/13 86/96/13 92/102/13 95/100/13
f 87/93/13 89/92/13 95/100/13 93/99/13
f 86/96/14 85/95/14 91/101/14 92/102/14
f 102/103/9 101/104/9 99/105/9 100/106/9
f 97/107/9 98/108/9 101/104/9 102/103/9
f 108/109/10 106/110/10 105/111/10 107/112/10
f 103/113/10 108/109/10 107/112/10 104/114/10
f 97/107/16 102/103/16 108/109/16 103/113/16
f 102/103/17 100/106/17 106/110/17 108/109/17
f 100/106/18 99/105/18 105/111/18 106/110/18
f 101/104/19 98/108/19 104/114/19 107/112/19
f 99/105/20 101/104/20 107/112/20 105/111/20
f 98/108/21 97/107/21 103/113/21 104/114/21
f 114/115/9 113/116/9 111/117/9 112/118/9
f 109/119/9 110/120/9 113/116/9 114/115/9
f 120/121/10 118/122/10 117/123/10 119/124/10
f 115/125/10 120/121/10 119/124/10 116/126/10
f 109/119/22 114/115/22 120/121/22 115/125/22
f 114/115/23 112/118/23 118/122/23 120/121/23
f 112/118/24 111/117/24 117/123/24 118/122/24
f 113/116/25 110/120/25 116/126/25 119/124/25
f 111/117/18 113/116/18 119/124/18 117/123/18
f 110/120/26 109/119/26 115/125/26 116/126/26
f 126/127/2 125/128/2 123/129/2 124/130/2
f 121/131/2 122/132/2 125/128/2 126/127/2
f 132/133/1 130/134/1 129/135/1 131/136/1
f 127/137/1 132/133/1 131/136/1 128/138/1
f 121/131/7 126/127/7 132/133/7 127/137/7
f 126/127/27 124/130/27 130/134/27 132/133/27
f 124/130/5 123/129/5 129/135/5 130/134/5
f 125/128/28 122/132/28 128/138/28 131/136/28
f 123/129/28 125/128/28 131/136/28 129/135/28
f 122/132/3 121/131/3 127/137/3 128/138/3
f 138/139/2 137/140/2 135/141/2 136/142/2
f 133/143/2 134/144/2 137/140/2 138/139/2
f 144/145/1 142/146/1 141/147/1 143/148/1
f 139/149/1 144/145/1 143/148/1 140/150/1
f 133/143/3 138/139/3 144/145/3 139/149/3
f 138/139/29 136/142/29 142/146/29 144/145/29
f 136/142/7 135/141/7 141/147/7 142/146/7
f 137/140/5 134/144/5 140/150/5 143/148/5
f 135/141/6 137/140/6 143/148/6 141/147/6
f 134/144/28 133/143/28 139/149/28 140/150/28
f 150/151/10 149/152/10 147/153/10 148/154/10
f 145/155/10 146/156/10 149/152/10 150/151/10
f 156/157/9 154/158/9 153/159/9 155/160/9
f 151/161/9 156/157/9 155/160/9 152/162/9
f 145/155/22 150/151/22 156/157/22 151/161/22
f 150/151/22 148/154/22 154/158/22 156/157/22
f 148/154/26 147/153/26 153/159/26 154/158/26
f 149/152/18 146/156/18 152/162/18 155/160/18
f 147/153/25 149/152/25 155/160/25 153/159/25
f 146/156/17 145/155/17 151/161/17 152/162/17
f 162/163/10 161/164/10 159/165/10 160/166/10
f 157/167/10 158/168/10 161/164/10 162/163/10
f 168/169/9 166/170/9 165/171/9 167/172/9
f 163/173/9 168/169/9 167/172/9 164/174/9
f 157/167/17 162/163/17 168/169/17 163/173/17
f 162/163/16 160/166/16 166/170/16 168/169/16
f 160/166/23 159/165/23 165/171/23 166/170/23
f 161/164/20 158/168/20 164/174/20 167/172/20
f 159/165/20 161/164/20 167/172/20 165/171/20
f 158/168/18 157/167/18 163/173/18 164/174/18
f 174/175/1 173/176/1 171/177/1 172/178/1
f 169/179/1 170/180/1 173/176/1 174/175/1
f 180/181/2 178/182/2 177/183/2 179/184/2
f 175/185/2 180/181/2 179/184/2 176/186/2
f 169/179/7 174/175/7 180/181/7 175/185/7
f 174/175/7 172/178/7 178/182/7 180/181/7
f 172/178/29 171/177/29 177/183/29 178/182/29
f 173/176/28 170/180/28 176/186/28 179/184/28
f 171/177/28 173/176/28 179/184/28 177/183/28
f 170/180/6 169/179/6 175/185/6 176/186/6
